Coordinates
version=1
nRows=7
nColumns=33
inDegrees=yes

Units are S.I. units (second, meters, Newtons, ...)
Angles are in degrees.

endheader
time	ground_thorax_rot_x	ground_thorax_rot_y	ground_thorax_rot_z	ground_thorax_tx	ground_thorax_ty	ground_thorax_tz	clav_prot_r	clav_elev_r	scapula_abduction_r	scapula_elevation_r	scapula_upward_rot_r	scapula_winging_r	shoulder_elv_r	plane_of_elev_r	axial_rot_r	elbow_flexion_r	pro_sup_r	wrist_flex_r	wrist_dev_r	clav_prot_l	clav_elev_l	scapula_abduction_l	scapula_elevation_l	scapula_upward_rot_l	scapula_winging_l	shoulder_elv_l	plane_of_elev_l	axial_rot_l	elbow_flexion_l	pro_sup_l	wrist_flex_l	wrist_dev_l
      4.56000000	    -41.12951063	     -9.08774595	     14.03000962	   -135.58658957	    803.69560855	     -1.65881631	      8.96627274	    -45.00000000	     44.79671360	    -45.00000000	    -25.60184211	   3505.56171349	  -1370.14998011	     31.29557686	     70.05917998	   1820.90014119	    211.54972334	      8.30293902	      4.03774503	     17.87679057	     42.01887682	    -43.83656908	    -45.00000000	    -33.78051500	  -2798.23914378	    789.03091869	     28.61885207	      4.70614458	   1447.88076124	     22.58026764	     11.04427967	    -20.33688046
      4.57000000	    -41.25997511	     -9.04706199	     13.75053337	   -132.33642880	    802.81056286	     -1.86421015	      8.94853634	    -45.00000000	     45.00000000	    -45.00000000	    -24.89474513	   3505.83795938	  -1370.41067589	     31.14411235	     70.39444072	   1820.70183553	    213.23277410	      8.14018003	      4.03439595	     17.99076535	     42.21847692	    -44.11749065	    -45.00000000	    -33.21611099	  -2798.30687352	    788.81790335	     28.63769561	      4.61626568	   1447.70226504	     23.09603614	     11.07262348	    -20.24268948
      4.58000000	    -41.23186395	     -9.25605196	     13.72036436	   -129.13994477	    801.95256982	     -2.08349419	      9.15634480	    -45.00000000	     45.00000000	    -45.00000000	    -25.08990775	   3506.11662963	  -1370.55248498	     31.37077422	     70.86277654	   1820.32598272	    214.59891341	      8.14274237	      4.19043342	     17.38269398	     42.21649252	    -44.07814914	    -45.00000000	    -33.02111864	  -2798.37304608	    788.58390183	     28.87396683	      4.24327905	   1447.67999138	     23.61845837	     11.31944527	    -20.21771032
      4.59000000	    -41.35446938	     -9.15519607	     13.47613247	   -126.02267383	    801.12694400	     -2.30780242	      8.97127787	    -45.00000000	     45.00000000	    -45.00000000	    -24.55587074	   3506.41494714	  -1370.79379188	     31.24725208	     71.10654826	   1820.18401225	    216.19734936	      7.98061018	      4.18509948	     17.68845801	     42.41749757	    -44.54390289	    -45.00000000	    -32.63181692	  -2798.41735677	    788.29899122	     28.82180633	      4.09103880	   1447.49575281	     24.13301361	     11.30861478	    -20.13178546
      4.60000000	    -41.62496047	     -8.52074741	     12.67354225	   -123.00351883	    800.33582537	     -2.52869322	      8.45994334	    -45.00000000	     45.00000000	    -45.00000000	    -23.03951893	   3506.84871944	  -1371.08328144	     30.94168286	     71.59703662	   1819.83092640	    218.61515034	      7.60643138	      3.91445395	     18.33133466	     42.94011020	    -45.00000000	    -45.00000000	    -31.24112482	  -2798.68857027	    788.23073212	     28.43636436	      4.31529400	   1447.41633609	     24.73685177	     11.18811010	    -20.06152510
      4.61000000	    -41.63549661	     -8.47508305	     12.42132842	   -120.08638650	    799.57870654	     -2.74257962	      8.35783337	    -45.00000000	     45.00000000	    -45.00000000	    -22.59755503	   3507.16247812	  -1371.26046743	     30.89568662	     72.19123418	   1819.40740018	    221.25421552	      7.42453218	      4.01784509	     18.28034161	     43.10673232	    -45.00000000	    -45.00000000	    -30.67636372	  -2798.96004655	    788.08385905	     28.44449759	      4.26911504	   1447.29910568	     25.44725621	     11.23839158	    -20.04072954
      4.62000000	    -41.60555948	     -8.81299331	     12.63662558	   -117.28565453	    798.85403504	     -2.94682618	      8.60144019	    -45.00000000	     45.00000000	    -45.00000000	    -22.72333399	   3507.44016884	  -1371.37054248	     30.81573002	     72.59382138	   1819.24879685	    223.41216926	      7.40475072	      4.35305772	     17.96035436	     43.03285972	    -45.00000000	    -45.00000000	    -30.71402954	  -2798.87823324	    787.75505459	     28.85620545	      4.06047566	   1446.95403209	     26.11274958	     11.39576368	    -19.98868164
